<svg xmlns="http://www.w3.org/2000/svg" width="750" viewBox="0 0 750 750" height="750" version="1.0"><defs><clipPath id="a"><path d="M 19 21.445312 L 731.390625 21.445312 L 731.390625 728.695312 L 19 728.695312 Z M 19 21.445312"/></clipPath></defs><path fill="#1E5D02" d="M 618.597656 38.347656 C 627.789062 47.945312 638.691406 61.996094 646.53125 72.722656 C 654.164062 83.164062 663.679688 97.585938 670.171875 108.769531 C 678.25 122.6875 688.070312 141.832031 694.410156 156.621094 C 702.1875 174.753906 710.699219 199.726562 716.257812 218.660156 C 719.90625 231.085938 724.472656 247.816406 726.382812 260.628906 C 727.703125 269.488281 727.914062 281.480469 728.335938 290.425781 C 729.113281 306.902344 730.535156 328.910156 729.800781 345.386719 C 729.230469 358.226562 727.054688 375.277344 725.003906 387.96875 C 722.765625 401.824219 719.195312 420.253906 715.292969 433.734375 C 710.632812 449.824219 702.585938 470.738281 695.769531 486.035156 C 688.945312 501.347656 678.707031 521.296875 669.910156 535.566406 C 662.148438 548.15625 650.699219 564.300781 641.191406 575.628906 C 631.859375 586.753906 617.925781 600.28125 607.351562 610.234375 C 592.792969 623.933594 573.296875 642.347656 556.847656 653.710938 C 538.273438 666.546875 511.296875 680.375 490.660156 689.527344 C 470.746094 698.363281 443.222656 708.027344 422.195312 713.722656 C 404.5625 718.5 380.589844 723.460938 362.417969 725.34375 C 340.863281 727.578125 311.804688 727.679688 290.1875 726.171875 C 265.675781 724.464844 233.039062 719.8125 209.238281 713.722656 C 188.589844 708.4375 161.800781 698.46875 142.402344 689.648438 C 124.695312 681.597656 102.125 668.617188 85.691406 658.207031 C 75.535156 651.777344 62.460938 642.445312 53.023438 635 C 45.796875 629.296875 36.152344 621.589844 29.871094 614.863281 C 26.585938 611.34375 20.039062 602.179688 20.039062 602.179688 C 194.378906 428.304688 426.828125 196.46875 601.167969 22.59375 C 601.167969 22.59375 613.722656 33.257812 618.597656 38.347656 Z M 618.597656 38.347656" fill-rule="evenodd"/><g clip-path="url(#a)"><path stroke-linecap="round" transform="matrix(1.02194 0 0 1.02174 -265.26 8.572)" fill="none" stroke-linejoin="round" d="M 864.879423 29.142399 C 873.873479 38.535821 884.541737 52.287607 892.213251 62.785912 C 899.682178 73.005129 908.993492 87.120111 915.346285 98.065722 C 923.250964 111.687522 932.860423 130.424665 939.064143 144.899021 C 946.674499 162.645974 955.003461 187.087221 960.442706 205.617915 C 964.012807 217.77928 968.481168 234.153731 970.350311 246.693586 C 971.642275 255.364436 971.848683 267.101434 972.2615 275.856394 C 973.022153 291.982341 974.413499 313.521836 973.694892 329.647783 C 973.136825 342.214399 971.00776 358.902346 969.001011 371.323684 C 966.810788 384.884313 963.317134 402.921824 959.498578 416.115433 C 954.938481 431.862891 947.064381 452.33191 940.394331 467.303273 C 933.716636 482.289929 923.698182 501.814635 915.090186 515.780516 C 907.49512 528.102453 896.291729 543.903434 886.988059 554.990501 C 877.856397 565.878765 864.221974 579.118252 853.874795 588.859578 C 839.628791 602.267282 820.5513 620.2895 804.455264 631.410975 C 786.279855 643.973768 759.88251 657.507636 739.688884 666.465221 C 720.202399 675.113133 693.269921 684.571548 672.694057 690.145666 C 655.439841 694.82135 631.981905 699.676721 614.2002 701.519468 C 593.108316 703.706296 564.673643 703.805697 543.520601 702.32997 C 519.535176 700.659264 487.599204 696.10592 464.309453 690.145666 C 444.10436 684.972976 417.890489 675.216358 398.908558 666.583738 C 381.581716 658.704275 359.496014 646.000025 343.415268 635.811394 C 333.477084 629.518527 320.683583 620.385078 311.448717 613.098199 C 304.377317 607.516435 294.939864 599.973406 288.79348 593.389983 C 285.578859 589.945346 279.172553 580.976291 279.172553 580.976291 C 449.769125 410.801288 677.227398 183.898734 847.82397 13.72373 C 847.82397 13.72373 860.109094 24.160865 864.879423 29.142399 Z M 864.879423 29.142399" stroke="#1E5D02" stroke-width="2"/></g><path stroke-linecap="round" transform="matrix(1.02194 0 0 1.02174 -265.26 8.572)" fill="#4F9F18" fill-rule="evenodd" stroke-linejoin="round" d="M 858.117635 35.010898 C 866.897638 44.178755 877.309797 57.601752 884.801659 67.851554 C 892.090935 77.822268 901.176728 91.600816 907.376626 102.286454 C 915.094008 115.583288 924.474125 133.869301 930.532595 147.999577 C 937.959476 165.325986 946.089675 189.182295 951.395136 207.269506 C 954.881145 219.140313 959.246301 235.124805 961.069576 247.362633 C 962.330961 255.830858 962.533547 267.284944 962.934897 275.833455 C 963.68026 291.573267 965.037205 312.596639 964.337709 328.33645 C 963.787287 340.604863 961.711735 356.895205 959.750855 369.018339 C 957.614146 382.254002 954.204584 399.863323 950.477765 412.743436 C 946.028517 428.108581 938.341714 448.092063 931.828381 462.707875 C 925.311226 477.335157 915.529759 496.393442 907.128171 510.026711 C 899.71658 522.050444 888.780755 537.476759 879.698784 548.30003 C 870.781175 558.924498 857.475476 571.850488 847.372929 581.358604 C 833.467117 594.445166 814.848311 612.03537 799.138336 622.896872 C 781.398678 635.157639 755.628202 648.366541 735.916197 657.113854 C 716.896042 665.551494 690.605723 674.784344 670.522947 680.224653 C 653.677725 684.789466 630.781678 689.52632 613.424258 691.327012 C 592.836927 693.460317 565.082638 693.559718 544.430327 692.1184 C 521.022081 690.489748 489.850585 686.043452 467.115078 680.224653 C 447.395428 675.178126 421.808427 665.654718 403.277536 657.228548 C 386.359689 649.536417 364.805297 637.134195 349.106789 627.190243 C 339.405593 621.046479 326.921705 612.130948 317.904714 605.01611 C 311.005321 599.568155 301.789566 592.208637 295.792255 585.781961 C 292.654082 582.41761 286.400671 573.66265 286.400671 573.66265 C 452.922587 407.55163 674.949261 186.07027 841.471177 19.959249 C 841.471177 19.959249 853.461978 30.147881 858.117635 35.010898 Z M 858.117635 35.010898" stroke="#4F9F18" stroke-width="2"/><path stroke-linecap="round" transform="matrix(1.02194 0 0 1.02174 -265.26 8.572)" fill="#FBFCB0" fill-rule="evenodd" stroke-linejoin="round" d="M 841.696697 49.359092 C 849.968324 58.003181 859.784192 70.653906 866.844125 80.314946 C 873.716762 89.716014 882.282712 102.703175 888.127128 112.777113 C 895.401114 125.309321 904.242276 142.551622 909.952909 155.867571 C 916.955506 172.199967 924.619375 194.687597 929.622869 211.738741 C 932.906292 222.929032 937.019171 237.995973 938.739241 249.534168 C 939.931823 257.513033 940.11912 268.309542 940.501358 276.368693 C 941.200853 291.206247 942.48135 311.025334 941.820078 325.862888 C 941.304057 337.427845 939.343177 352.781521 937.496968 364.208846 C 935.482575 376.68753 932.271777 393.283722 928.755189 405.425972 C 924.562039 419.911798 917.31481 438.748342 911.17607 452.526889 C 905.033508 466.313083 895.813931 484.281778 887.893963 497.131305 C 880.906655 508.466875 870.597701 523.006225 862.035573 533.21015 C 853.633985 543.226741 841.085117 555.411045 831.567395 564.372453 C 818.456637 576.709682 800.904275 593.290581 786.096381 603.525091 C 769.373475 615.086225 745.08226 627.534325 726.501679 635.780809 C 708.570901 643.736735 683.790422 652.43817 664.858182 657.568806 C 648.980022 661.869823 627.395051 666.335235 611.035271 668.032703 C 591.625233 670.047491 565.464875 670.135423 545.997502 668.782036 C 523.930911 667.245139 494.548288 663.054993 473.116212 657.568806 C 454.524164 652.809014 430.408778 643.832313 412.940509 635.887856 C 396.993546 628.639208 376.673782 616.951911 361.877355 607.577605 C 352.730404 601.781745 340.961301 593.378513 332.464153 586.67275 C 325.958465 581.538291 317.274021 574.599316 311.620724 568.539661 C 308.65838 565.370289 302.764273 557.116159 302.764273 557.116159 C 459.737888 400.536193 669.032219 191.755259 826.002012 35.17147 C 826.002012 35.17147 837.304785 44.775163 841.696697 49.359092 Z M 841.696697 49.359092" stroke="#FBFCB0" stroke-width="2"/><path stroke-linecap="round" transform="matrix(1.02194 0 0 1.02174 -265.26 8.572)" fill="#FF0302" fill-rule="evenodd" stroke-linejoin="round" d="M 836.880501 53.644816 C 845.018344 62.143627 854.66985 74.58408 861.615111 84.084549 C 868.373077 93.328869 876.797599 106.101934 882.542633 116.007655 C 889.694303 128.333414 898.390214 145.285157 904.005288 158.383188 C 910.889392 174.440319 918.427122 196.557106 923.350346 213.321515 C 926.580255 224.328296 930.624332 239.146734 932.313823 250.48995 C 933.483471 258.338829 933.670767 268.955651 934.04536 276.880992 C 934.733388 291.470042 935.990951 310.956518 935.341147 325.549391 C 934.836593 336.923192 932.910114 352.020719 931.094484 363.26071 C 929.11067 375.529123 925.953385 391.853873 922.494133 403.793497 C 918.369786 418.038466 911.244873 436.561513 905.209337 450.110673 C 899.166157 463.66748 890.099476 481.334147 882.313291 493.973403 C 875.440654 505.12164 865.303707 519.420133 856.886829 529.452016 C 848.622847 539.30039 836.28421 551.285891 826.919382 560.094375 C 814.030322 572.228978 796.768461 588.534612 782.2052 598.600904 C 765.761328 609.967059 741.875285 622.212533 723.600493 630.317561 C 705.971684 638.143501 681.600199 646.699658 662.981394 651.742361 C 647.3708 655.974562 626.145133 660.367335 610.056742 662.034218 C 590.971607 664.014597 565.243177 664.102529 546.100706 662.768258 C 524.397241 661.258123 495.503883 657.136793 474.427288 651.742361 C 456.148675 647.062855 432.430816 638.235256 415.249225 630.424608 C 399.569829 623.294478 379.590257 611.798336 365.038462 602.580779 C 356.044406 596.88432 344.470244 588.622544 336.114525 582.027651 C 329.715863 576.977301 321.17667 570.15302 315.615109 564.196589 C 312.706279 561.080741 306.911554 552.960421 306.911554 552.960421 C 461.270662 398.980181 667.090451 193.674468 821.449559 39.690405 C 821.449559 39.690405 832.565035 49.133527 836.880501 53.644816 Z M 836.880501 53.644816" stroke="#FF0302" stroke-width="2"/><path fill="#0A0605" d="M 524.667969 172.625 C 524.3125 172.449219 523.917969 172.082031 523.59375 171.847656 C 523.59375 171.847656 523.460938 166.851562 523.992188 164.804688 C 525.371094 159.507812 528.9375 152.789062 532.601562 148.722656 C 534.601562 146.503906 537.976562 144.164062 540.6875 142.914062 C 543.253906 141.730469 547 140.574219 549.824219 140.640625 C 553.449219 140.722656 558.421875 142.136719 561.351562 144.269531 C 562.175781 144.867188 562.949219 146.035156 563.5 146.890625 C 564.402344 148.277344 565.367188 150.285156 565.914062 151.847656 C 566.113281 152.421875 566.25 153.226562 566.390625 153.816406 C 566.148438 156.304688 566.523438 159.796875 565.578125 162.113281 C 564.207031 165.46875 560.847656 169.402344 557.792969 171.359375 C 552.90625 174.488281 544.796875 175.914062 538.996094 175.910156 C 534.585938 175.910156 528.617188 174.585938 524.667969 172.625 M 566.390625 153.816406 Z M 566.390625 153.816406" fill-rule="evenodd"/><path stroke-linecap="round" transform="matrix(1.02194 0 0 1.02174 -265.26 8.572)" fill="none" stroke-linejoin="round" d="M 771.915357 159.801568 C 772.232614 160.030956 772.618674 160.39033 772.966511 160.56237 C 776.830935 162.48158 782.67153 163.77762 786.986995 163.77762 C 792.663227 163.781443 800.598485 162.386002 805.38028 159.323677 C 808.36938 157.408291 811.656625 153.558403 812.99828 150.274337 C 813.923296 148.007223 813.556347 144.589348 813.793335 142.154016 C 813.655729 141.576724 813.521946 140.78916 813.327005 140.227161 C 812.791872 138.69791 811.847744 136.732823 810.964775 135.375613 C 810.42582 134.538349 809.668989 133.395234 808.862467 132.810295 C 805.995683 130.722868 801.129795 129.338897 797.582628 129.258611 C 794.819048 129.193618 791.153387 130.325263 788.642085 131.483671 C 785.989354 132.707071 782.686819 134.997124 780.729761 137.16866 C 777.144371 141.148534 773.654539 147.724312 772.305239 152.908471 C 771.785396 154.911789 771.915357 159.801568 771.915357 159.801568" stroke="#0A0605" stroke-width="2"/><path stroke-linecap="round" transform="matrix(1.02194 0 0 1.02174 -265.26 8.572)" fill="none" stroke-linejoin="round" d="M 795.522366 133.96488 C 795.526188 133.96488 800.552616 134.266907 802.540253 135.023886 C 803.855151 135.524715 805.452905 136.587544 806.507882 137.516564 C 807.685174 138.552631 809.810417 141.565255 809.810417 141.565255" stroke="#213335" stroke-width="5"/><path fill="#0A0605" d="M 560.964844 251.859375 C 560.703125 251.5625 560.472656 251.074219 560.265625 250.738281 C 560.265625 250.738281 562.011719 246.054688 563.269531 244.355469 C 566.53125 239.957031 572.359375 235.0625 577.277344 232.664062 C 579.960938 231.355469 583.96875 230.449219 586.953125 230.304688 C 589.773438 230.167969 593.679688 230.5 596.273438 231.617188 C 599.601562 233.054688 603.683594 236.226562 605.605469 239.300781 C 606.144531 240.160156 606.421875 241.535156 606.613281 242.535156 C 606.929688 244.160156 607.074219 246.382812 606.992188 248.035156 C 606.964844 248.640625 606.789062 249.4375 606.699219 250.039062 C 605.539062 252.257812 604.582031 255.636719 602.835938 257.429688 C 600.308594 260.027344 595.71875 262.417969 592.15625 263.085938 C 586.453125 264.15625 578.402344 262.441406 573.023438 260.269531 C 568.933594 258.617188 563.894531 255.15625 560.964844 251.859375 M 606.699219 250.039062 Z M 606.699219 250.039062" fill-rule="evenodd"/><path stroke-linecap="round" transform="matrix(1.02194 0 0 1.02174 -265.26 8.572)" fill="none" stroke-linejoin="round" d="M 807.799846 237.013429 C 808.002432 237.342218 808.227952 237.820109 808.484051 238.110667 C 811.350835 241.337385 816.281703 244.724675 820.283733 246.341858 C 825.547149 248.467516 833.425071 250.145869 839.005743 249.098332 C 842.491752 248.444577 846.983047 246.104824 849.456126 243.562445 C 851.164729 241.80763 852.101212 238.500626 853.236458 236.32909 C 853.324373 235.740328 853.49638 234.960411 853.523136 234.367826 C 853.603406 232.750643 853.461978 230.575285 853.152366 228.984864 C 852.965069 228.006144 852.69368 226.660403 852.166192 225.819315 C 850.285582 222.810515 846.291196 219.706136 843.03453 218.299226 C 840.496471 217.205811 836.674092 216.880846 833.914335 217.014655 C 830.994038 217.156111 827.072278 218.043076 824.446304 219.323823 C 819.633929 221.671223 813.930941 226.4616 810.739255 230.766441 C 809.508449 232.429501 807.799846 237.013429 807.799846 237.013429" stroke="#0A0605" stroke-width="2"/><path stroke-linecap="round" transform="matrix(1.02194 0 0 1.02174 -265.26 8.572)" fill="none" stroke-linejoin="round" d="M 839.365047 221.892964 C 839.365047 221.892964 843.913677 224.056854 845.473207 225.501996 C 846.50525 226.457777 847.590805 228.044375 848.217675 229.29836 C 848.920993 230.701448 849.765738 234.295187 849.765738 234.295187" stroke="#213335" stroke-width="5"/><path fill="#0A0605" d="M 565.804688 342.847656 C 565.640625 342.484375 565.566406 341.953125 565.464844 341.570312 C 565.464844 341.570312 568.511719 337.605469 570.21875 336.351562 C 574.628906 333.109375 581.632812 330.144531 587.042969 329.296875 C 589.992188 328.835938 594.089844 329.152344 596.984375 329.890625 C 599.71875 330.589844 603.355469 332.054688 605.503906 333.886719 C 608.265625 336.238281 611.234375 340.46875 612.164062 343.972656 C 612.425781 344.953125 612.285156 346.347656 612.179688 347.359375 C 612 349.003906 611.484375 351.171875 610.921875 352.726562 C 610.714844 353.300781 610.3125 354.011719 610.050781 354.558594 C 608.292969 356.335938 606.378906 359.28125 604.1875 360.484375 C 601.003906 362.226562 595.917969 363.160156 592.3125 362.75 C 586.546875 362.097656 579.355469 358.089844 574.855469 354.429688 C 571.433594 351.648438 567.636719 346.859375 565.804688 342.847656 M 610.050781 354.558594 Z M 610.050781 354.558594" fill-rule="evenodd"/><path stroke-linecap="round" transform="matrix(1.02194 0 0 1.02174 -265.26 8.572)" fill="none" stroke-linejoin="round" d="M 812.887431 325.912588 C 812.986813 326.287255 813.059438 326.8072 813.219978 327.162751 C 815.012674 331.089101 818.728025 335.776254 822.076429 338.49832 C 826.479809 342.08059 833.516808 346.003118 839.158638 346.64158 C 842.686693 347.043008 847.66343 346.129281 850.778669 344.424166 C 852.923023 343.246644 854.795988 340.364006 856.516059 338.624484 C 856.772158 338.089246 857.165863 337.393437 857.368449 336.831437 C 857.918872 335.309833 858.423425 333.187998 858.599255 331.578462 C 858.702459 330.588272 858.840065 329.223416 858.583965 328.263811 C 857.674239 324.834467 854.769232 320.694021 852.06681 318.392499 C 849.964502 316.599452 846.405868 315.16578 843.730203 314.48144 C 840.89782 313.758869 836.888145 313.449196 834.00225 313.900325 C 828.708256 314.729943 821.854731 317.631696 817.539266 320.804891 C 815.868886 322.032115 812.887431 325.912588 812.887431 325.912588" stroke="#0A0605" stroke-width="2"/><path stroke-linecap="round" transform="matrix(1.02194 0 0 1.02174 -265.26 8.572)" fill="none" stroke-linejoin="round" d="M 847.50289 320.747544 C 847.50289 320.747544 851.21442 324.150127 852.280863 325.992874 C 852.984181 327.208628 853.557538 329.043729 853.790703 330.427701 C 854.046802 331.976067 853.798348 335.657738 853.798348 335.657738" stroke="#213335" stroke-width="5"/><path fill="#0A0605" d="M 539.265625 427.644531 C 539.21875 427.253906 539.308594 426.722656 539.328125 426.324219 C 539.328125 426.324219 543.4375 423.476562 545.441406 422.800781 C 550.628906 421.050781 558.207031 420.359375 563.617188 421.199219 C 566.566406 421.65625 570.371094 423.199219 572.90625 424.785156 C 575.300781 426.28125 578.320312 428.785156 579.808594 431.179688 C 581.722656 434.261719 583.261719 439.195312 583.082031 442.816406 C 583.035156 443.832031 582.476562 445.117188 582.066406 446.046875 C 581.394531 447.558594 580.246094 449.46875 579.234375 450.78125 C 578.863281 451.261719 578.265625 451.816406 577.847656 452.257812 C 575.632812 453.417969 572.914062 455.640625 570.460938 456.121094 C 566.898438 456.8125 561.769531 456.152344 558.460938 454.667969 C 553.167969 452.289062 547.535156 446.285156 544.359375 441.433594 C 541.945312 437.742188 539.785156 432.023438 539.265625 427.644531 M 577.847656 452.257812 Z M 577.847656 452.257812" fill-rule="evenodd"/><path stroke-linecap="round" transform="matrix(1.02194 0 0 1.02174 -265.26 8.572)" fill="none" stroke-linejoin="round" d="M 787.311897 408.862962 C 787.292785 409.252921 787.204871 409.772867 787.250739 410.155179 C 787.759115 414.440904 789.872891 420.037961 792.235121 423.650815 C 795.342714 428.399138 800.854584 434.275284 806.033907 436.603568 C 809.271461 438.056356 814.290244 438.702464 817.776253 438.025771 C 820.176707 437.555526 822.837082 435.380167 825.004371 434.244699 C 825.413365 433.812686 825.998189 433.269802 826.361315 432.799557 C 827.351311 431.514987 828.47509 429.645478 829.13254 428.165928 C 829.533889 427.256024 830.080489 425.998215 830.126358 425.004202 C 830.302187 421.460164 828.79617 416.631555 826.923205 413.615109 C 825.466879 411.271532 822.51218 408.820908 820.169062 407.356651 C 817.688339 405.804461 813.965342 404.294326 811.079446 403.847021 C 805.785452 403.025048 798.370038 403.701742 793.293919 405.414502 C 791.333039 406.075903 787.311897 408.862962 787.311897 408.862962" stroke="#0A0605" stroke-width="2"/><path stroke-linecap="round" transform="matrix(1.02194 0 0 1.02174 -265.26 8.572)" fill="none" stroke-linejoin="round" d="M 821.858553 414.471489 C 821.858553 414.471489 824.358389 418.845146 824.813252 420.921103 C 825.11522 422.297429 825.09993 424.216638 824.901167 425.608256 C 824.675646 427.160446 823.318702 430.58979 823.318702 430.58979" stroke="#213335" stroke-width="5"/><path fill="#0A0605" d="M 488.988281 497.332031 C 489.128906 496.960938 489.453125 496.53125 489.652344 496.1875 C 489.652344 496.1875 494.609375 495.546875 496.703125 495.867188 C 502.113281 496.695312 509.164062 499.5625 513.582031 502.792969 C 515.992188 504.554688 518.664062 507.671875 520.183594 510.242188 C 521.625 512.671875 523.15625 516.28125 523.375 519.097656 C 523.660156 522.710938 522.761719 527.800781 520.9375 530.9375 C 520.429688 531.816406 519.34375 532.703125 518.550781 533.339844 C 517.261719 534.375 515.359375 535.539062 513.863281 536.242188 C 513.3125 536.5 512.523438 536.714844 511.949219 536.917969 C 509.449219 536.929688 506.011719 537.65625 503.613281 536.953125 C 500.132812 535.933594 495.878906 532.988281 493.621094 530.152344 C 490.011719 525.609375 487.769531 517.691406 487.179688 511.917969 C 486.730469 507.53125 487.4375 501.460938 488.988281 497.332031 M 511.949219 536.917969 Z M 511.949219 536.917969" fill-rule="evenodd"/><path stroke-linecap="round" transform="matrix(1.02194 0 0 1.02174 -265.26 8.572)" fill="none" stroke-linejoin="round" d="M 738.702711 477.239579 C 738.507769 477.576014 738.190512 477.996558 738.052906 478.359755 C 736.535422 482.400799 735.843572 488.341938 736.283145 492.635309 C 736.860324 498.28589 739.054369 506.035367 742.586247 510.481663 C 744.795582 513.257253 748.958152 516.13989 752.363891 517.137726 C 754.710832 517.825889 758.074525 517.114787 760.520847 517.103318 C 761.082736 516.904515 761.854857 516.694243 762.393812 516.441917 C 763.857783 515.753754 765.719281 514.614463 766.980666 513.601334 C 767.756609 512.978164 768.81923 512.110315 769.316139 511.250111 C 771.10119 508.180141 771.980337 503.198607 771.701304 499.662215 C 771.48725 496.905741 769.988878 493.373172 768.57842 490.995188 C 767.091515 488.47957 764.477008 485.428715 762.118601 483.704485 C 757.795491 480.54276 750.896098 477.736585 745.602104 476.926082 C 743.553309 476.612586 738.702711 477.239579 738.702711 477.239579" stroke="#0A0605" stroke-width="2"/><path stroke-linecap="round" transform="matrix(1.02194 0 0 1.02174 -265.26 8.572)" fill="none" stroke-linejoin="round" d="M 766.812482 498.094733 C 766.812482 498.094733 767.022712 503.125968 766.47229 505.18281 C 766.109164 506.54002 765.214727 508.237488 764.396738 509.384426 C 763.48319 510.657527 760.700499 513.081389 760.700499 513.081389" stroke="#213335" stroke-width="5"/><path fill="#0A0605" d="M 415.363281 545.738281 C 415.621094 545.4375 416.074219 545.148438 416.378906 544.894531 C 416.382812 544.894531 421.257812 545.992188 423.113281 547.015625 C 427.90625 549.65625 433.539062 554.769531 436.578125 559.320312 C 438.238281 561.804688 439.671875 565.652344 440.214844 568.585938 C 440.730469 571.363281 440.925781 575.28125 440.167969 578 C 439.191406 581.492188 436.597656 585.960938 433.804688 588.277344 C 433.023438 588.925781 431.699219 589.386719 430.738281 589.710938 C 429.171875 590.242188 426.984375 590.683594 425.335938 590.828125 C 424.730469 590.878906 423.917969 590.8125 423.308594 590.804688 C 420.957031 589.953125 417.480469 589.457031 415.46875 587.972656 C 412.550781 585.816406 409.566406 581.589844 408.425781 578.148438 C 406.597656 572.644531 407.214844 564.433594 408.648438 558.8125 C 409.738281 554.539062 412.488281 549.082031 415.363281 545.738281 M 423.308594 590.804688 Z M 423.308594 590.804688" fill-rule="evenodd"/><path stroke-linecap="round" transform="matrix(1.02194 0 0 1.02174 -265.26 8.572)" fill="none" stroke-linejoin="round" d="M 667.002536 524.910142 C 666.70439 525.158645 666.260995 525.441557 666.008718 525.735937 C 663.195447 529.008534 660.504493 534.349441 659.438049 538.531942 C 658.035236 544.03342 657.4313 552.069632 659.220174 557.456417 C 660.336308 560.824592 663.256605 564.961215 666.111922 567.07158 C 668.080447 568.524368 671.482364 569.009905 673.783435 569.843347 C 674.379726 569.850993 675.174781 569.915986 675.76725 569.866286 C 677.380293 569.72483 679.520825 569.292817 681.053599 568.772872 C 681.993904 568.455552 683.289691 568.004423 684.054166 567.369784 C 686.787167 565.10267 689.325226 560.729014 690.280821 557.311139 C 691.022362 554.650243 690.831243 550.815647 690.326689 548.097404 C 689.795379 545.226236 688.392566 541.460456 686.768055 539.028948 C 683.794244 534.575006 678.282375 529.570533 673.592316 526.9861 C 671.776687 525.984441 667.006358 524.910142 667.002536 524.910142" stroke="#0A0605" stroke-width="2"/><path stroke-linecap="round" transform="matrix(1.02194 0 0 1.02174 -265.26 8.572)" fill="none" stroke-linejoin="round" d="M 686.225277 554.157059 C 686.225277 554.157059 684.696326 558.955083 683.469342 560.698429 C 682.66282 561.845367 681.237073 563.13376 680.078893 563.925147 C 678.783106 564.812113 675.335321 566.127268 675.335321 566.127268" stroke="#213335" stroke-width="5"/><path fill="#0A0605" d="M 328.753906 568.265625 C 329.101562 568.070312 329.628906 567.957031 330 567.820312 C 330 567.820312 334.203125 570.53125 335.59375 572.128906 C 339.1875 576.253906 342.71875 582.992188 344.007812 588.3125 C 344.710938 591.214844 344.734375 595.320312 344.234375 598.265625 C 343.765625 601.050781 342.601562 604.796875 340.953125 607.085938 C 338.835938 610.03125 334.859375 613.335938 331.445312 614.550781 C 330.488281 614.894531 329.085938 614.871094 328.070312 614.84375 C 326.414062 614.804688 324.210938 614.46875 322.613281 614.035156 C 322.027344 613.875 321.289062 613.53125 320.71875 613.316406 C 318.800781 611.710938 315.707031 610.046875 314.332031 607.960938 C 312.332031 604.933594 310.984375 599.9375 311.09375 596.316406 C 311.273438 590.515625 314.675781 583.019531 317.953125 578.234375 C 320.445312 574.597656 324.90625 570.417969 328.753906 568.265625 M 320.71875 613.316406 Z M 320.71875 613.316406" fill-rule="evenodd"/><path stroke-linecap="round" transform="matrix(1.02194 0 0 1.02174 -265.26 8.572)" fill="none" stroke-linejoin="round" d="M 582.478282 547.348071 C 582.115156 547.481881 581.599135 547.592751 581.258943 547.783908 C 577.4939 549.89045 573.128744 553.981195 570.690067 557.540526 C 567.483091 562.223856 564.1538 569.560436 563.97797 575.237778 C 563.870944 578.781817 565.189664 583.671595 567.146722 586.634518 C 568.492199 588.676068 571.519523 590.30472 573.396311 591.876025 C 573.954378 592.086297 574.676807 592.422732 575.250164 592.57948 C 576.813517 593.003847 578.969338 593.332636 580.590027 593.370867 C 581.583845 593.397629 582.956079 593.420568 583.892562 593.084133 C 587.233321 591.89514 591.124502 588.660775 593.196231 585.778138 C 594.809275 583.537786 595.948343 579.871408 596.407029 577.145518 C 596.896293 574.262881 596.873359 570.244775 596.185331 567.404192 C 594.923946 562.197094 591.468516 555.602201 587.951928 551.56498 C 586.591161 550.001321 582.478282 547.348071 582.478282 547.348071" stroke="#0A0605" stroke-width="2"/><path stroke-linecap="round" transform="matrix(1.02194 0 0 1.02174 -265.26 8.572)" fill="none" stroke-linejoin="round" d="M 590.474697 581.423597 C 590.474697 581.423597 587.386216 585.403472 585.639389 586.615403 C 584.48503 587.418259 582.703802 588.137007 581.339213 588.481088 C 579.821729 588.867224 576.129311 588.920748 576.129311 588.920748" stroke="#213335" stroke-width="5"/><path fill="#0A0605" d="M 241.863281 558.707031 C 242.257812 558.667969 242.785156 558.769531 243.179688 558.792969 C 243.183594 558.796875 245.96875 562.945312 246.613281 564.960938 C 248.28125 570.171875 248.859375 577.757812 247.9375 583.152344 C 247.433594 586.097656 245.832031 589.875 244.207031 592.382812 C 242.671875 594.753906 240.125 597.734375 237.703125 599.1875 C 234.59375 601.054688 229.636719 602.515625 226.015625 602.28125 C 225.003906 602.21875 223.722656 601.640625 222.800781 601.214844 C 221.296875 600.523438 219.40625 599.34375 218.113281 598.3125 C 217.636719 597.933594 217.089844 597.328125 216.652344 596.902344 C 215.53125 594.671875 213.347656 591.921875 212.90625 589.457031 C 212.269531 585.890625 213.007812 580.769531 214.542969 577.484375 C 217 572.230469 223.09375 566.691406 227.996094 563.589844 C 231.726562 561.234375 237.476562 559.160156 241.863281 558.707031 M 216.652344 596.902344 Z M 216.652344 596.902344" fill-rule="evenodd"/><path stroke-linecap="round" transform="matrix(1.02194 0 0 1.02174 -265.26 8.572)" fill="none" stroke-linejoin="round" d="M 497.522099 538.512826 C 497.136039 538.489887 496.620017 538.390486 496.233957 538.428717 C 491.941426 538.8722 486.314885 540.90228 482.664514 543.207625 C 477.867429 546.243188 471.904518 551.664381 469.500242 556.806486 C 467.998048 560.021735 467.275618 565.033854 467.898666 568.524368 C 468.330595 570.936761 470.467304 573.628242 471.564327 575.811247 C 471.992433 576.227968 472.527566 576.820553 472.993896 577.191396 C 474.259104 578.200701 476.109135 579.355286 477.58075 580.031979 C 478.482832 580.4487 479.736572 581.014522 480.726568 581.075692 C 484.269913 581.30508 489.120511 579.875231 492.163124 578.047776 C 494.532999 576.625573 497.02519 573.708528 498.527384 571.38789 C 500.117494 568.933443 501.684669 565.23648 502.177756 562.353842 C 503.079837 557.074105 502.514125 549.649593 500.881969 544.549543 C 500.251277 542.576809 497.525921 538.516649 497.522099 538.512826" stroke="#0A0605" stroke-width="2"/><path stroke-linecap="round" transform="matrix(1.02194 0 0 1.02174 -265.26 8.572)" fill="none" stroke-linejoin="round" d="M 491.387181 572.970664 C 491.383359 572.970664 486.976157 575.402173 484.889138 575.82654 C 483.513082 576.105628 481.594248 576.063574 480.206724 575.841832 C 478.654839 575.593329 475.245277 574.182596 475.245277 574.182596" stroke="#213335" stroke-width="5"/><path fill="#0A0605" d="M 161.019531 520.476562 C 161.402344 520.570312 161.871094 520.839844 162.234375 520.996094 C 162.234375 521 163.472656 525.839844 163.40625 527.957031 C 163.238281 533.425781 161.246094 540.769531 158.574219 545.546875 C 157.117188 548.152344 154.34375 551.179688 151.976562 553 C 149.738281 554.722656 146.339844 556.679688 143.574219 557.238281 C 140.019531 557.960938 134.855469 557.683594 131.523438 556.253906 C 130.589844 555.855469 129.578125 554.882812 128.851562 554.175781 C 127.664062 553.019531 126.277344 551.277344 125.398438 549.875 C 125.078125 549.355469 124.765625 548.601562 124.496094 548.058594 C 124.183594 545.578125 123.042969 542.253906 123.453125 539.789062 C 124.042969 536.210938 126.449219 531.628906 128.996094 529.046875 C 133.070312 524.914062 140.660156 521.730469 146.320312 520.445312 C 150.621094 519.472656 156.734375 519.4375 161.019531 520.476562 M 124.496094 548.058594 Z M 124.496094 548.058594" fill-rule="evenodd"/><path stroke-linecap="round" transform="matrix(1.02194 0 0 1.02174 -265.26 8.572)" fill="none" stroke-linejoin="round" d="M 418.314773 501.520255 C 417.959292 501.36733 417.500606 501.103534 417.126013 501.011779 C 412.932864 499.994827 406.950842 500.029235 402.742403 500.981194 C 397.203777 502.239002 389.776896 505.35485 385.790155 509.399718 C 383.297964 511.926805 380.943379 516.411332 380.3662 519.913316 C 379.96485 522.325709 381.080985 525.579189 381.386775 528.006874 C 381.650519 528.538289 381.956309 529.276152 382.269744 529.784628 C 383.129779 531.157131 384.486724 532.862245 385.648727 533.99389 C 386.359689 534.685876 387.349685 535.637835 388.263234 536.027794 C 391.523722 537.427058 396.576907 537.6985 400.055271 536.991222 C 402.761515 536.444515 406.086984 534.529128 408.277207 532.843129 C 410.593568 531.061553 413.307457 528.09863 414.733204 525.548604 C 417.347711 520.872921 419.297124 513.685443 419.461486 508.333066 C 419.526467 506.260931 418.314773 501.524078 418.314773 501.520255" stroke="#0A0605" stroke-width="2"/><path stroke-linecap="round" transform="matrix(1.02194 0 0 1.02174 -265.26 8.572)" fill="none" stroke-linejoin="round" d="M 401.01851 531.944695 C 401.01851 531.944695 396.049419 532.77049 393.939466 532.472286 C 392.54812 532.273484 390.755424 531.589144 389.520796 530.916274 C 388.14474 530.166941 385.400272 527.697201 385.400272 527.697201" stroke="#213335" stroke-width="5"/><path fill="#0A0605" d="M 237.308594 428.277344 C 237.648438 428.242188 238.105469 428.332031 238.449219 428.355469 C 238.449219 428.359375 240.835938 431.953125 241.382812 433.695312 C 242.796875 438.203125 243.261719 444.757812 242.4375 449.414062 C 241.988281 451.953125 240.589844 455.207031 239.175781 457.367188 C 237.839844 459.40625 235.625 461.964844 233.527344 463.210938 C 230.832031 464.808594 226.542969 466.046875 223.421875 465.828125 C 222.542969 465.765625 221.445312 465.261719 220.648438 464.890625 C 219.355469 464.285156 217.726562 463.257812 216.613281 462.363281 C 216.203125 462.035156 215.738281 461.507812 215.359375 461.140625 C 214.402344 459.207031 212.527344 456.820312 212.160156 454.691406 C 211.628906 451.605469 212.289062 447.1875 213.628906 444.359375 C 215.777344 439.832031 221.0625 435.082031 225.3125 432.425781 C 228.542969 430.410156 233.519531 428.648438 237.308594 428.277344 M 215.359375 461.140625 Z M 215.359375 461.140625" fill-rule="evenodd"/><path stroke-linecap="round" transform="matrix(1.02194 0 0 1.02174 -265.26 8.572)" fill="none" stroke-linejoin="round" d="M 492.893198 410.850988 C 492.556829 410.828049 492.109611 410.740118 491.777064 410.774526 C 488.069357 411.137723 483.199647 412.861953 480.03854 414.834686 C 475.879792 417.434412 470.708114 422.083334 468.605806 426.514337 C 467.29473 429.282281 466.648748 433.606237 467.168592 436.626507 C 467.527895 438.71011 469.362637 441.046041 470.29912 442.938488 C 470.66989 443.297862 471.124753 443.813984 471.526103 444.135127 C 472.615481 445.010623 474.209413 446.016105 475.47462 446.60869 C 476.254385 446.971887 477.328473 447.46507 478.188509 447.52624 C 481.242589 447.740335 485.439561 446.528404 488.077002 444.964745 C 490.129619 443.745168 492.296907 441.24102 493.604161 439.245348 C 494.987862 437.131159 496.356273 433.946495 496.795847 431.461463 C 497.602369 426.904296 497.147506 420.48909 495.763805 416.077202 C 495.228672 414.372088 492.893198 410.854811 492.893198 410.850988" stroke="#0A0605" stroke-width="2"/><path stroke-linecap="round" transform="matrix(1.02194 0 0 1.02174 -265.26 8.572)" fill="none" stroke-linejoin="round" d="M 487.427197 440.575796 C 487.427197 440.575796 483.608641 442.655577 481.804479 443.011128 C 480.615719 443.248162 478.956807 443.198461 477.760402 443.003481 C 476.42257 442.78174 473.486983 441.54687 473.486983 441.54687" stroke="#213335" stroke-width="5"/><path fill="#0A0605" d="M 321.835938 449.085938 C 322.121094 448.898438 322.566406 448.761719 322.878906 448.625 C 322.882812 448.625 326.675781 450.679688 327.976562 451.964844 C 331.339844 455.285156 334.820312 460.855469 336.277344 465.351562 C 337.070312 467.804688 337.359375 471.339844 337.125 473.90625 C 336.898438 476.335938 336.144531 479.636719 334.875 481.71875 C 333.242188 484.390625 330.035156 487.492188 327.171875 488.765625 C 326.371094 489.121094 325.164062 489.191406 324.285156 489.238281 C 322.859375 489.308594 320.941406 489.164062 319.535156 488.894531 C 319.019531 488.796875 318.359375 488.550781 317.855469 488.402344 C 316.101562 487.140625 313.328125 485.914062 312.007812 484.207031 C 310.089844 481.730469 308.601562 477.519531 308.460938 474.390625 C 308.234375 469.386719 310.675781 462.710938 313.1875 458.375 C 315.09375 455.082031 318.660156 451.191406 321.835938 449.085938 M 317.855469 488.402344 Z M 317.855469 488.402344" fill-rule="evenodd"/><path stroke-linecap="round" transform="matrix(1.02194 0 0 1.02174 -265.26 8.572)" fill="none" stroke-linejoin="round" d="M 575.510086 430.689191 C 575.204296 430.823001 574.768544 430.95681 574.489511 431.14032 C 571.381917 433.200985 567.892086 437.008819 566.026765 440.231715 C 563.568976 444.475385 561.179989 451.009108 561.401687 455.906533 C 561.539293 458.968857 562.995619 463.090188 564.872407 465.51405 C 566.164371 467.184756 568.878259 468.385218 570.594507 469.620088 C 571.087594 469.765366 571.733576 470.006223 572.23813 470.101802 C 573.614186 470.365597 575.490974 470.507053 576.886142 470.438237 C 577.746177 470.392359 578.927292 470.323543 579.71088 469.975638 C 582.512683 468.729299 585.650856 465.693737 587.24861 463.078718 C 588.490883 461.040992 589.228602 457.81045 589.4503 455.432465 C 589.679643 452.920671 589.396787 449.460742 588.620844 447.059819 C 587.195097 442.6594 583.789358 437.207622 580.49829 433.957964 C 579.225438 432.700156 575.513908 430.689191 575.510086 430.689191" stroke="#0A0605" stroke-width="2"/><path stroke-linecap="round" transform="matrix(1.02194 0 0 1.02174 -265.26 8.572)" fill="none" stroke-linejoin="round" d="M 584.618814 459.504095 C 584.618814 459.504095 582.222182 463.132242 580.796435 464.294473 C 579.852308 465.059098 578.365403 465.793138 577.214867 466.179274 C 575.930548 466.611287 572.757973 466.894199 572.757973 466.894199" stroke="#213335" stroke-width="5"/><path fill="#0A0605" d="M 398.714844 417.851562 C 398.8125 417.523438 399.066406 417.132812 399.214844 416.824219 C 399.214844 416.824219 403.441406 415.953125 405.265625 416.097656 C 409.976562 416.464844 416.230469 418.480469 420.242188 420.980469 C 422.433594 422.34375 424.933594 424.855469 426.40625 426.972656 C 427.800781 428.972656 429.351562 431.984375 429.722656 434.394531 C 430.199219 437.488281 429.75 441.929688 428.382812 444.746094 C 427.996094 445.535156 427.117188 446.367188 426.476562 446.964844 C 425.433594 447.941406 423.875 449.066406 422.628906 449.765625 C 422.167969 450.023438 421.503906 450.257812 421.023438 450.472656 C 418.871094 450.640625 415.957031 451.488281 413.847656 451.035156 C 410.785156 450.378906 406.929688 448.117188 404.808594 445.816406 C 401.40625 442.136719 398.96875 435.460938 398.089844 430.527344 C 397.425781 426.78125 397.644531 421.507812 398.714844 417.851562 M 421.023438 450.472656 Z M 421.023438 450.472656" fill-rule="evenodd"/><path stroke-linecap="round" transform="matrix(1.02194 0 0 1.02174 -265.26 8.572)" fill="none" stroke-linejoin="round" d="M 650.207005 399.565119 C 650.061755 399.867146 649.8133 400.249459 649.717741 400.570601 C 648.670409 404.149048 648.456356 409.310268 649.10616 412.976646 C 649.966195 417.805255 652.351359 424.338978 655.680651 427.940363 C 657.756203 430.192185 661.52889 432.405775 664.525635 433.04806 C 666.589719 433.491543 669.441213 432.661924 671.547344 432.49753 C 672.017497 432.287258 672.667301 432.05787 673.118342 431.805544 C 674.33768 431.121205 675.862809 430.020144 676.883384 429.064362 C 677.510254 428.479424 678.370289 427.665098 678.748705 426.892827 C 680.086537 424.136353 680.526111 419.789458 680.059781 416.761542 C 679.696655 414.402673 678.179171 411.455042 676.814581 409.497601 C 675.373545 407.425467 672.927223 404.967197 670.782868 403.632925 C 666.857286 401.186125 660.737658 399.213391 656.127869 398.854017 C 654.342819 398.712562 650.207005 399.565119 650.207005 399.565119" stroke="#0A0605" stroke-width="2"/><path stroke-linecap="round" transform="matrix(1.02194 0 0 1.02174 -265.26 8.572)" fill="none" stroke-linejoin="round" d="M 675.744315 415.721651 C 675.744315 415.725474 676.252692 420.041784 675.908678 421.850123 C 675.683157 423.042938 675.021886 424.564543 674.391194 425.60061 C 673.687876 426.755194 671.44414 429.022308 671.44414 429.022308" stroke="#213335" stroke-width="5"/><path fill="#0A0605" d="M 444.542969 351.035156 C 444.371094 350.738281 444.269531 350.285156 444.152344 349.960938 C 444.152344 349.960938 446.464844 346.316406 447.832031 345.109375 C 451.375 341.976562 457.171875 338.886719 461.757812 337.742188 C 464.261719 337.117188 467.804688 337.070312 470.351562 337.480469 C 472.761719 337.871094 476.003906 338.847656 477.992188 340.257812 C 480.546875 342.066406 483.425781 345.476562 484.5 348.417969 C 484.800781 349.242188 484.789062 350.453125 484.773438 351.332031 C 484.75 352.757812 484.472656 354.664062 484.109375 356.046875 C 483.976562 356.554688 483.683594 357.195312 483.5 357.6875 C 482.125 359.351562 480.707031 362.035156 478.914062 363.238281 C 476.3125 364.980469 472.011719 366.175781 468.878906 366.105469 C 463.871094 365.988281 457.375 363.097656 453.21875 360.296875 C 450.0625 358.171875 446.421875 354.34375 444.542969 351.035156 M 483.5 357.6875 Z M 483.5 357.6875" fill-rule="evenodd"/><path stroke-linecap="round" transform="matrix(1.02194 0 0 1.02174 -265.26 8.572)" fill="none" stroke-linejoin="round" d="M 694.179647 334.124664 C 694.294318 334.441983 694.3937 334.885466 694.561885 335.176024 C 696.400449 338.414212 699.962905 342.160876 703.051387 344.240656 C 707.118398 346.981838 713.475013 349.810952 718.375302 349.925645 C 721.44085 349.994462 725.649288 348.824585 728.194992 347.119471 C 729.949464 345.941948 731.336987 343.31546 732.682465 341.686808 C 732.862116 341.205094 733.148795 340.578101 733.278756 340.081095 C 733.634237 338.727708 733.905626 336.862022 733.92856 335.466581 C 733.943849 334.606378 733.955317 333.421209 733.660993 332.614529 C 732.609839 329.735715 729.792747 326.398125 727.292911 324.628018 C 725.34732 323.247869 722.174746 322.292088 719.816339 321.909775 C 717.324148 321.508347 713.857251 321.554224 711.407106 322.165924 C 706.919634 323.2861 701.247224 326.310193 697.780327 329.376341 C 696.442495 330.557687 694.179647 334.124664 694.179647 334.124664" stroke="#0A0605" stroke-width="2"/><path stroke-linecap="round" transform="matrix(1.02194 0 0 1.02174 -265.26 8.572)" fill="none" stroke-linejoin="round" d="M 723.54698 327.006002 C 723.54698 327.006002 727.006233 329.647783 728.065031 331.146448 C 728.764527 332.140461 729.395219 333.673535 729.704832 334.847235 C 730.045023 336.158567 730.113826 339.343231 730.113826 339.343231" stroke="#213335" stroke-width="5"/><path fill="#0A0605" d="M 441.246094 265.875 C 440.9375 265.722656 440.59375 265.40625 440.316406 265.207031 C 440.316406 265.203125 440.183594 260.894531 440.640625 259.121094 C 441.8125 254.542969 444.871094 248.730469 448.023438 245.210938 C 449.742188 243.285156 452.648438 241.257812 454.984375 240.167969 C 457.199219 239.136719 460.429688 238.125 462.867188 238.175781 C 466 238.238281 470.296875 239.445312 472.835938 241.273438 C 473.550781 241.789062 474.21875 242.792969 474.699219 243.53125 C 475.480469 244.726562 476.320312 246.457031 476.796875 247.804688 C 476.972656 248.300781 477.089844 248.992188 477.214844 249.503906 C 477.011719 251.65625 477.347656 254.667969 476.539062 256.671875 C 475.367188 259.574219 472.476562 262.980469 469.84375 264.675781 C 465.636719 267.394531 458.636719 268.648438 453.628906 268.667969 C 449.820312 268.679688 444.660156 267.558594 441.246094 265.875 M 477.214844 249.503906 Z M 477.214844 249.503906" fill-rule="evenodd"/><path stroke-linecap="round" transform="matrix(1.02194 0 0 1.02174 -265.26 8.572)" fill="none" stroke-linejoin="round" d="M 690.426071 251.17429 C 690.69746 251.369269 691.033829 251.678942 691.335797 251.828044 C 694.676556 253.475812 699.725918 254.573049 703.452737 254.56158 C 708.353026 254.542464 715.202728 253.315241 719.31943 250.654345 C 721.895713 248.995108 724.724273 245.661341 725.870986 242.820758 C 726.662219 240.859495 726.333494 237.911864 726.532258 235.805321 C 726.409942 235.304492 726.29527 234.627799 726.123263 234.142261 C 725.656933 232.823283 724.835122 231.129638 724.070646 229.959761 C 723.600493 229.23719 722.946867 228.254647 722.247371 227.749994 C 719.762826 225.960771 715.558209 224.779425 712.492662 224.718255 C 710.107498 224.668554 706.946391 225.658744 704.779102 226.668049 C 702.49332 227.734702 699.64947 229.718904 697.967624 231.603706 C 694.882964 235.048342 691.890042 240.737155 690.743328 245.217859 C 690.29611 246.953558 690.426071 251.170467 690.426071 251.17429" stroke="#0A0605" stroke-width="2"/><path stroke-linecap="round" transform="matrix(1.02194 0 0 1.02174 -265.26 8.572)" fill="none" stroke-linejoin="round" d="M 710.730545 228.789884 C 710.730545 228.789884 715.072767 229.030741 716.792837 229.680673 C 717.928084 230.108863 719.315607 231.02259 720.229156 231.821624 C 721.245908 232.712412 723.092117 235.308315 723.092117 235.308315" stroke="#213335" stroke-width="5"/></svg>