<svg xmlns="http://www.w3.org/2000/svg" width="750" viewBox="0 0 750 750" height="750" version="1.0"><defs><clipPath id="a"><path d="M 0 75 L 749.894531 75 L 749.894531 671 L 0 671 Z M 0 75"/></clipPath><clipPath id="b"><path d="M 0 75 L 749.894531 75 L 749.894531 672 L 0 672 Z M 0 75"/></clipPath></defs><g clip-path="url(#a)"><path d="M 390.675781 75.039062 C 370.074219 89.921875 350.988281 106.25 332.316406 125.335938 C 313.574219 144.144531 303.171875 160.75 279.332031 188.175781 C 254.941406 215.664062 216.773438 259.003906 189.554688 288.703125 C 162.546875 317.914062 140.5 339.6875 118.660156 364.148438 C 96.609375 388.46875 78.421875 410.863281 58.507812 435.046875 C 38.320312 459.371094 19.097656 483.484375 -0.742188 508.703125 C 32.742188 539.089844 67.742188 565.339844 106.117188 588.558594 C 144.359375 611.777344 173.917969 633 227.246094 646.917969 C 280.574219 660.558594 360.976562 674.203125 422.988281 670.273438 C 484.652344 665.933594 549.210938 641.339844 595.371094 621.769531 C 641.050781 601.925781 670.886719 573.671875 696.792969 552.664062 C 722.699219 531.578125 739.921875 512.976562 749.777344 496.09375 C 722.078125 458.195312 695.070312 420.578125 667.167969 382.132812 C 639.261719 343.40625 608.945312 300.550781 583.660156 266.304688 C 558.097656 232.0625 537.84375 206.980469 515.449219 178.320312 C 492.921875 149.382812 471.421875 122.164062 449.925781 94.8125 C 430.222656 88.265625 410.449219 81.652344 390.675781 75.039062 Z M 390.675781 75.039062" fill-rule="evenodd"/></g><g clip-path="url(#b)"><path transform="matrix(1.91387 0 0 1.91393 -.79 75)" fill="none" d="M 204.541007 0.0204011 C 193.776677 7.796469 183.804263 16.327694 174.048197 26.299838 C 164.255392 36.127074 158.820161 44.803207 146.363828 59.132806 C 133.619711 73.495061 113.676923 96.139544 99.455109 111.656984 C 85.34351 126.919303 73.824004 138.29563 62.412672 151.076139 C 50.891125 163.783173 41.388145 175.484013 30.983035 188.119613 C 20.435054 200.828689 10.391204 213.427552 0.024873 226.604008 C 17.52048 242.480657 35.808002 256.195927 55.858963 268.32741 C 75.84053 280.458893 91.284914 291.547444 119.148893 298.819394 C 147.012871 305.946436 189.023146 313.075519 221.424308 311.02231 C 253.643819 308.754801 287.375725 295.904899 311.494435 285.679676 C 335.362101 275.311585 350.951397 260.549301 364.487428 249.573003 C 378.02346 238.555886 387.022309 228.836821 392.171798 220.01578 C 377.698938 200.214359 363.58734 180.559887 349.008347 160.472731 C 334.427314 140.238626 318.586973 117.847224 305.375463 99.954103 C 292.019041 82.063023 281.436362 68.958001 269.735206 53.983457 C 257.964654 38.864005 246.730891 24.642576 235.499169 10.351755 C 225.204273 6.931101 214.87264 3.475751 204.541007 0.0204011 Z M 204.541007 0.0204011" stroke="#000" stroke-width=".036" stroke-miterlimit="10"/></g><path transform="matrix(1.91387 0 0 1.91393 -.79 75)" fill="#F66" fill-rule="evenodd" d="M 204.541007 5.204447 C 198.491429 9.055743 191.976499 14.168355 184.849264 20.683108 C 177.648552 27.23664 168.684401 35.839298 161.84495 44.119484 C 154.96876 52.220065 151.946012 59.743054 144.024821 69.46416 C 135.889323 79.219962 125.376039 89.732961 114.001445 101.827707 C 102.408462 113.95919 87.900906 127.964276 76.02014 141.212166 C 64.141415 154.28045 53.30565 168.356971 43.657757 179.694519 C 34.007824 190.999412 25.907023 200.251096 18.779788 208.278203 C 29.003248 216.991073 41.712667 225.920285 57.732618 235.496483 C 73.752569 244.962468 93.156527 258.571608 113.999404 265.051665 C 134.807583 271.531721 158.963032 274.374783 181.067258 273.980877 C 202.955135 273.333892 226.463582 267.645728 244.391884 261.775919 C 262.175275 255.763243 271.643558 249.068885 287.087941 238.772228 C 302.458848 228.404137 318.442061 215.768536 335.866232 200.324571 C 319.091105 174.728857 300.225975 146.361515 278.158487 113.565284 C 256.021605 80.660882 231.937592 45.235891 204.541007 5.204447 Z M 204.541007 5.204447" stroke="#000" stroke-width=".036" stroke-miterlimit="10"/><path transform="matrix(1.91387 0 0 1.91393 -.79 75)" fill="#F66" fill-rule="evenodd" d="M 208.280152 3.800264 L 232.688687 14.096921 C 254.756174 40.807001 276.895097 68.672266 300.223934 99.488763 C 323.587467 130.30322 346.844868 162.127952 371.504449 197.046785 L 341.946425 199.38981 C 317.71954 164.07299 295.003009 130.952246 272.539565 98.088663 C 250.07612 65.220998 228.980157 34.29633 208.280152 3.804346 Z M 208.280152 3.800264" stroke="#000" stroke-width=".036" stroke-miterlimit="10"/><path transform="matrix(1.91387 0 0 1.91393 -.79 75)" fill="#C2FF80" fill-rule="evenodd" d="M 373.380144 200.320489 L 343.858859 202.659432 L 351.347354 218.607515 L 385.58135 219.542276 Z M 373.380144 200.320489" stroke="#000" stroke-width=".036" stroke-miterlimit="10"/><path transform="matrix(1.91387 0 0 1.91393 -.79 75)" fill="#408000" fill-rule="evenodd" d="M 350.879961 222.360846 C 349.979872 226.212143 343.356768 232.584029 330.720826 241.619371 C 317.903232 250.728188 297.635923 266.964047 275.352087 276.325943 C 252.888643 285.467415 223.944965 293.531259 197.9526 296.484533 C 171.960235 299.364331 146.831221 298.427529 121.055203 293.676168 C 129.084569 297.958108 140.459162 301.237935 155.760675 303.503404 C 170.988711 305.809691 191.184584 309.191567 212.027461 307.283267 C 232.837681 305.123928 257.748307 299.435765 279.564749 291.335183 C 301.307714 283.054997 324.348767 270.131621 341.483114 258.971637 C 358.439892 247.813693 371.400357 236.831272 380.903337 225.203907 C 370.894184 224.269146 360.887073 223.332344 350.879961 222.360846 Z M 350.879961 222.360846" stroke="#000" stroke-width=".036" stroke-miterlimit="10"/><path transform="matrix(1.91387 0 0 1.91393 -.79 75)" fill="#C2FF80" fill-rule="evenodd" d="M 338.680796 204.539159 L 346.203989 220.019862 C 328.455296 236.976181 309.592207 250.909834 288.494203 262.249423 C 267.326804 273.517578 245.079707 282.408012 220.491563 287.55532 C 195.758506 292.525065 166.059652 294.468061 141.687855 292.274026 C 117.134408 289.933042 97.983535 285.036772 75.087395 273.987 C 52.227992 262.753541 29.403287 247.12997 5.643796 226.140709 L 15.505995 213.468371 C 30.554421 225.88763 46.178415 236.688405 63.351541 246.299299 C 80.379754 255.804062 97.19162 265.451693 117.27932 270.672476 C 137.36702 275.821825 161.522469 278.017901 182.942953 277.260704 C 204.255264 276.46881 224.271528 273.229803 244.395966 265.992548 C 264.483666 258.540993 286.08376 243.960355 302.103711 233.629002 C 317.942011 223.260911 329.859516 213.792884 338.680796 204.539159 Z M 338.680796 204.539159" stroke="#000" stroke-width=".036" stroke-miterlimit="10"/><path transform="matrix(1.91387 0 0 1.91393 -.79 75)" fill-rule="evenodd" d="M 165.588177 121.051535 C 163.283867 121.555653 158.856899 131.060417 157.164895 135.128056 C 155.291241 139.087523 153.419627 142.867386 155.291241 144.524648 C 157.199592 146.000264 166.271918 145.963527 168.900749 144.02053 C 171.34793 141.824455 170.843798 136.207725 170.304969 132.319691 C 169.692664 128.431657 167.749615 120.512721 165.588177 121.051535 Z M 165.588177 121.051535" stroke="#000" stroke-width=".036" stroke-miterlimit="10"/><path transform="matrix(1.91387 0 0 1.91393 -.79 75)" fill-rule="evenodd" d="M 253.319297 59.132806 C 254.435734 61.796263 256.091 66.080244 257.999352 68.527358 C 259.801571 70.831605 264.012191 74.288996 264.120365 73.207286 C 264.012191 72.019445 260.124052 65.396521 257.999352 61.93913 C 255.805257 58.375609 252.276337 53.083393 251.447684 52.579275 C 250.655769 52.148632 252.204901 56.324441 253.319297 59.132806 Z M 253.319297 59.132806" stroke="#000" stroke-width=".036" stroke-miterlimit="10"/><path transform="matrix(1.91387 0 0 1.91393 -.79 75)" fill-rule="evenodd" d="M 279.564749 85.412243 C 280.644447 87.967529 282.407887 92.431114 284.2795 94.772098 C 286.116417 97.076345 290.220904 100.819471 290.363775 99.488763 C 290.220904 97.904976 286.440939 89.912566 284.2795 86.347004 C 282.011929 82.891654 278.519747 78.895449 277.691094 78.824015 C 276.937958 78.679107 278.340138 82.640616 279.564749 85.412243 Z M 279.564749 85.412243" stroke="#000" stroke-width=".036" stroke-miterlimit="10"/><path transform="matrix(1.91387 0 0 1.91393 -.79 75)" fill-rule="evenodd" d="M 300.695409 124.796702 C 301.811846 127.460158 303.467111 131.744139 305.375463 134.191254 C 307.104205 136.603672 311.027042 139.556945 311.459738 138.871181 C 311.747522 137.899683 309.804472 132.499296 307.716511 129.043946 C 305.485678 125.480425 299.97697 118.96363 298.823795 118.24317 C 297.637964 117.559448 299.509577 122.059771 300.695409 124.796702 Z M 300.695409 124.796702" stroke="#000" stroke-width=".036" stroke-miterlimit="10"/><path transform="matrix(1.91387 0 0 1.91393 -.79 75)" fill-rule="evenodd" d="M 242.520271 131.38493 C 240.218002 131.887007 235.788993 141.39177 234.096989 145.459409 C 232.260073 149.312747 230.280285 153.308952 232.188637 154.819265 C 234.096989 156.260184 243.167273 156.331618 245.796105 154.351884 C 248.243285 152.192545 247.739154 146.467645 247.200325 142.616348 C 246.553322 138.691577 244.716406 130.880812 242.520271 131.38493 Z M 242.520271 131.38493" stroke="#000" stroke-width=".036" stroke-miterlimit="10"/><path transform="matrix(1.91387 0 0 1.91393 -.79 75)" fill-rule="evenodd" d="M 214.368509 174.512514 C 212.064199 175.016632 207.637231 184.519355 205.943186 188.586994 C 204.071572 192.546462 202.199959 196.328366 204.071572 197.983587 C 205.979924 199.422465 215.05225 199.49594 217.67904 197.514165 C 220.128262 195.354826 219.622089 189.629926 219.08326 185.778629 C 218.472996 181.892636 216.527906 173.9737 214.368509 174.512514 Z M 214.368509 174.512514" stroke="#000" stroke-width=".036" stroke-miterlimit="10"/><path transform="matrix(1.91387 0 0 1.91393 -.79 75)" fill-rule="evenodd" d="M 114.468838 162.813716 C 112.164529 163.317834 107.73552 172.820556 106.043516 176.888195 C 104.20864 180.741533 102.228853 184.737738 104.135164 186.248051 C 106.043516 187.686929 115.115841 187.760404 117.744672 185.778629 C 120.191853 183.61929 119.687721 177.896431 119.148893 174.043093 C 118.499849 170.118322 116.664974 162.309598 114.468838 162.813716 Z M 114.468838 162.813716" stroke="#000" stroke-width=".036" stroke-miterlimit="10"/><path transform="matrix(1.91387 0 0 1.91393 -.79 75)" fill-rule="evenodd" d="M 126.167954 105.103452 C 124.151428 105.499399 120.624549 113.455072 119.075416 116.875725 C 117.671195 120.116774 115.764885 123.39252 117.528324 124.759965 C 119.148893 126.019239 126.780259 125.984542 128.904959 124.364018 C 130.848008 122.527151 130.596963 117.77579 130.092831 114.536782 C 129.480526 111.224299 128.041608 104.707505 126.167954 105.103452 Z M 126.167954 105.103452" stroke="#000" stroke-width=".036" stroke-miterlimit="10"/><path transform="matrix(1.91387 0 0 1.91393 -.79 75)" fill-rule="evenodd" d="M 170.880537 75.080889 C 169.188533 75.440099 165.984134 82.35284 164.759523 85.267335 C 163.500215 88.112437 161.951082 90.847327 163.42878 92.071905 C 164.833 93.223008 171.34793 93.008707 173.256282 91.712695 C 175.05646 90.163604 174.623764 85.987795 174.299242 83.216167 C 173.83389 80.336369 172.499064 74.756376 170.880537 75.080889 Z M 170.880537 75.080889" stroke="#000" stroke-width=".036" stroke-miterlimit="10"/><path transform="matrix(1.91387 0 0 1.91393 -.79 75)" fill-rule="evenodd" d="M 203.712353 43.184723 C 202.020349 43.543933 198.817992 50.456673 197.593381 53.371168 C 196.332032 56.21627 194.78494 58.951161 196.260596 60.175738 C 197.664817 61.328882 204.179746 61.11254 206.088098 59.816529 C 207.888276 58.267438 207.45558 54.091628 207.133099 51.320001 C 206.663665 48.440202 205.332922 42.86021 203.712353 43.184723 Z M 203.712353 43.184723" stroke="#000" stroke-width=".036" stroke-miterlimit="10"/><path transform="matrix(1.91387 0 0 1.91393 -.79 75)" fill-rule="evenodd" d="M 212.172373 97.111042 C 210.588543 97.472292 207.204535 104.382992 206.053401 107.299528 C 204.82879 110.14463 203.173524 112.87952 204.685919 114.104098 C 206.053401 115.255201 212.713243 115.0409 214.548118 113.744888 C 216.385034 112.267231 215.844165 108.019988 215.556381 105.283057 C 215.123685 102.439996 213.721506 96.751832 212.172373 97.111042 Z M 212.172373 97.111042" stroke="#000" stroke-width=".036" stroke-miterlimit="10"/><path transform="matrix(1.91387 0 0 1.91393 -.79 75)" fill-rule="evenodd" d="M 159.503902 189.056415 C 157.271028 189.560533 152.699148 199.065297 151.043882 203.130895 C 149.172268 207.092403 147.300655 210.870226 149.172268 212.527487 C 151.08062 213.966366 160.152946 214.039841 162.779736 212.060107 C 165.228958 209.900768 164.724826 204.175868 164.183956 200.324571 C 163.536954 196.436537 161.700037 188.51556 159.503902 189.056415 Z M 159.503902 189.056415" stroke="#000" stroke-width=".036" stroke-miterlimit="10"/></svg>